<svg width="471" height="1020" viewBox="0 0 471 1020" fill="none" xmlns="http://www.w3.org/2000/svg">
<rect width="471" height="1020" fill="white"/>
<path d="M157.701 137.15V139.23H149.132V137.15H157.701ZM152.032 133.298H154.742V149.074C154.742 149.611 154.825 150.017 154.991 150.29C155.157 150.563 155.372 150.744 155.636 150.832C155.899 150.92 156.183 150.964 156.485 150.964C156.71 150.964 156.944 150.944 157.188 150.905C157.442 150.856 157.633 150.817 157.76 150.788L157.774 153C157.56 153.068 157.276 153.132 156.925 153.19C156.583 153.259 156.168 153.293 155.68 153.293C155.016 153.293 154.405 153.161 153.849 152.897C153.292 152.634 152.848 152.194 152.516 151.579C152.193 150.954 152.032 150.114 152.032 149.06V133.298ZM167.457 153.293C166.354 153.293 165.353 153.107 164.454 152.736C163.565 152.355 162.799 151.823 162.154 151.14C161.52 150.456 161.031 149.646 160.689 148.708C160.348 147.771 160.177 146.745 160.177 145.632V145.017C160.177 143.728 160.367 142.58 160.748 141.574C161.129 140.559 161.646 139.699 162.301 138.996C162.955 138.293 163.697 137.761 164.527 137.399C165.357 137.038 166.217 136.857 167.105 136.857C168.238 136.857 169.215 137.053 170.035 137.443C170.865 137.834 171.544 138.381 172.071 139.084C172.599 139.777 172.989 140.598 173.243 141.545C173.497 142.482 173.624 143.508 173.624 144.621V145.837H161.788V143.625H170.914V143.42C170.875 142.717 170.729 142.033 170.475 141.369C170.23 140.705 169.84 140.158 169.303 139.729C168.766 139.299 168.033 139.084 167.105 139.084C166.49 139.084 165.924 139.216 165.406 139.479C164.889 139.733 164.444 140.114 164.073 140.622C163.702 141.13 163.414 141.75 163.209 142.482C163.004 143.215 162.901 144.06 162.901 145.017V145.632C162.901 146.384 163.004 147.092 163.209 147.756C163.424 148.41 163.731 148.986 164.132 149.484C164.542 149.982 165.035 150.373 165.611 150.656C166.197 150.939 166.861 151.081 167.604 151.081C168.561 151.081 169.371 150.886 170.035 150.495C170.699 150.104 171.28 149.582 171.778 148.928L173.419 150.231C173.077 150.749 172.643 151.242 172.115 151.711C171.588 152.18 170.938 152.561 170.167 152.854C169.405 153.146 168.502 153.293 167.457 153.293ZM178.619 137.15L182.091 142.922L185.606 137.15H188.785L183.6 144.973L188.946 153H185.812L182.149 147.053L178.487 153H175.338L180.67 144.973L175.499 137.15H178.619ZM198.307 137.15V139.23H189.737V137.15H198.307ZM192.638 133.298H195.348V149.074C195.348 149.611 195.431 150.017 195.597 150.29C195.763 150.563 195.978 150.744 196.241 150.832C196.505 150.92 196.788 150.964 197.091 150.964C197.315 150.964 197.55 150.944 197.794 150.905C198.048 150.856 198.238 150.817 198.365 150.788L198.38 153C198.165 153.068 197.882 153.132 197.53 153.19C197.188 153.259 196.773 153.293 196.285 153.293C195.621 153.293 195.011 153.161 194.454 152.897C193.897 152.634 193.453 152.194 193.121 151.579C192.799 150.954 192.638 150.114 192.638 149.06V133.298ZM200.475 145.251V144.914C200.475 143.771 200.641 142.712 200.973 141.735C201.305 140.749 201.783 139.895 202.408 139.172C203.033 138.439 203.79 137.873 204.679 137.473C205.567 137.062 206.563 136.857 207.667 136.857C208.78 136.857 209.781 137.062 210.67 137.473C211.568 137.873 212.33 138.439 212.955 139.172C213.59 139.895 214.073 140.749 214.405 141.735C214.737 142.712 214.903 143.771 214.903 144.914V145.251C214.903 146.394 214.737 147.453 214.405 148.43C214.073 149.406 213.59 150.261 212.955 150.993C212.33 151.716 211.573 152.282 210.685 152.692C209.806 153.093 208.81 153.293 207.696 153.293C206.583 153.293 205.582 153.093 204.693 152.692C203.805 152.282 203.043 151.716 202.408 150.993C201.783 150.261 201.305 149.406 200.973 148.43C200.641 147.453 200.475 146.394 200.475 145.251ZM203.185 144.914V145.251C203.185 146.042 203.277 146.789 203.463 147.492C203.648 148.186 203.927 148.801 204.298 149.338C204.679 149.875 205.152 150.3 205.719 150.612C206.285 150.915 206.944 151.066 207.696 151.066C208.438 151.066 209.088 150.915 209.645 150.612C210.211 150.3 210.68 149.875 211.051 149.338C211.422 148.801 211.7 148.186 211.886 147.492C212.081 146.789 212.179 146.042 212.179 145.251V144.914C212.179 144.133 212.081 143.396 211.886 142.702C211.7 141.999 211.417 141.379 211.036 140.842C210.665 140.295 210.196 139.865 209.63 139.553C209.073 139.24 208.419 139.084 207.667 139.084C206.925 139.084 206.271 139.24 205.704 139.553C205.147 139.865 204.679 140.295 204.298 140.842C203.927 141.379 203.648 141.999 203.463 142.702C203.277 143.396 203.185 144.133 203.185 144.914Z" fill="black"/>
<path d="M148.294 361.796C148.294 361.405 148.206 361.044 148.03 360.712C147.864 360.37 147.518 360.062 146.99 359.789C146.473 359.506 145.691 359.262 144.646 359.057C143.768 358.871 142.972 358.651 142.259 358.397C141.556 358.144 140.955 357.836 140.457 357.475C139.969 357.113 139.593 356.688 139.329 356.2C139.065 355.712 138.934 355.141 138.934 354.486C138.934 353.861 139.07 353.271 139.344 352.714C139.627 352.157 140.022 351.664 140.53 351.234C141.048 350.805 141.668 350.468 142.391 350.224C143.113 349.979 143.919 349.857 144.808 349.857C146.077 349.857 147.161 350.082 148.06 350.531C148.958 350.98 149.646 351.581 150.125 352.333C150.604 353.075 150.843 353.9 150.843 354.809H148.133C148.133 354.369 148.001 353.944 147.737 353.534C147.483 353.114 147.107 352.768 146.609 352.494C146.121 352.221 145.521 352.084 144.808 352.084C144.056 352.084 143.445 352.201 142.977 352.436C142.518 352.66 142.181 352.948 141.966 353.3C141.761 353.651 141.658 354.022 141.658 354.413C141.658 354.706 141.707 354.97 141.805 355.204C141.912 355.429 142.098 355.639 142.361 355.834C142.625 356.02 142.996 356.195 143.475 356.361C143.953 356.527 144.563 356.693 145.306 356.859C146.604 357.152 147.674 357.504 148.514 357.914C149.354 358.324 149.979 358.827 150.389 359.423C150.799 360.019 151.004 360.741 151.004 361.591C151.004 362.284 150.857 362.919 150.564 363.495C150.281 364.071 149.866 364.569 149.319 364.989C148.782 365.399 148.138 365.722 147.386 365.956C146.644 366.181 145.809 366.293 144.881 366.293C143.484 366.293 142.303 366.044 141.336 365.546C140.369 365.048 139.637 364.403 139.139 363.612C138.641 362.821 138.392 361.986 138.392 361.107H141.116C141.155 361.85 141.37 362.44 141.761 362.88C142.151 363.31 142.63 363.617 143.196 363.803C143.763 363.979 144.324 364.066 144.881 364.066C145.623 364.066 146.243 363.969 146.741 363.773C147.249 363.578 147.635 363.31 147.898 362.968C148.162 362.626 148.294 362.235 148.294 361.796ZM153.846 358.251V357.914C153.846 356.771 154.012 355.712 154.344 354.735C154.676 353.749 155.154 352.895 155.779 352.172C156.404 351.439 157.161 350.873 158.05 350.473C158.938 350.062 159.935 349.857 161.038 349.857C162.151 349.857 163.152 350.062 164.041 350.473C164.939 350.873 165.701 351.439 166.326 352.172C166.961 352.895 167.444 353.749 167.776 354.735C168.108 355.712 168.274 356.771 168.274 357.914V358.251C168.274 359.394 168.108 360.453 167.776 361.43C167.444 362.406 166.961 363.261 166.326 363.993C165.701 364.716 164.944 365.282 164.056 365.692C163.177 366.093 162.181 366.293 161.067 366.293C159.954 366.293 158.953 366.093 158.064 365.692C157.176 365.282 156.414 364.716 155.779 363.993C155.154 363.261 154.676 362.406 154.344 361.43C154.012 360.453 153.846 359.394 153.846 358.251ZM156.556 357.914V358.251C156.556 359.042 156.648 359.789 156.834 360.492C157.02 361.186 157.298 361.801 157.669 362.338C158.05 362.875 158.523 363.3 159.09 363.612C159.656 363.915 160.315 364.066 161.067 364.066C161.81 364.066 162.459 363.915 163.016 363.612C163.582 363.3 164.051 362.875 164.422 362.338C164.793 361.801 165.071 361.186 165.257 360.492C165.452 359.789 165.55 359.042 165.55 358.251V357.914C165.55 357.133 165.452 356.396 165.257 355.702C165.071 354.999 164.788 354.379 164.407 353.842C164.036 353.295 163.567 352.865 163.001 352.553C162.444 352.24 161.79 352.084 161.038 352.084C160.296 352.084 159.642 352.24 159.075 352.553C158.519 352.865 158.05 353.295 157.669 353.842C157.298 354.379 157.02 354.999 156.834 355.702C156.648 356.396 156.556 357.133 156.556 357.914ZM174.383 353.534V366H171.673V350.15H174.236L174.383 353.534ZM173.738 357.475L172.61 357.431C172.62 356.347 172.781 355.346 173.094 354.428C173.406 353.5 173.846 352.694 174.412 352.011C174.979 351.327 175.652 350.8 176.434 350.429C177.225 350.048 178.099 349.857 179.056 349.857C179.837 349.857 180.54 349.965 181.165 350.18C181.79 350.385 182.322 350.717 182.762 351.176C183.211 351.635 183.553 352.23 183.787 352.963C184.021 353.686 184.139 354.569 184.139 355.614V366H181.414V355.585C181.414 354.755 181.292 354.091 181.048 353.593C180.804 353.085 180.447 352.719 179.979 352.494C179.51 352.26 178.934 352.143 178.25 352.143C177.576 352.143 176.961 352.284 176.404 352.567C175.857 352.851 175.384 353.241 174.983 353.739C174.593 354.237 174.285 354.809 174.061 355.453C173.846 356.088 173.738 356.762 173.738 357.475ZM191.199 350.15V366H188.475V350.15H191.199ZM188.27 345.946C188.27 345.507 188.401 345.136 188.665 344.833C188.938 344.53 189.339 344.379 189.866 344.379C190.384 344.379 190.779 344.53 191.053 344.833C191.336 345.136 191.478 345.507 191.478 345.946C191.478 346.366 191.336 346.728 191.053 347.03C190.779 347.323 190.384 347.47 189.866 347.47C189.339 347.47 188.938 347.323 188.665 347.03C188.401 346.728 188.27 346.366 188.27 345.946ZM205.54 362.924V343.5H208.265V366H205.774L205.54 362.924ZM194.876 358.251V357.943C194.876 356.732 195.022 355.634 195.315 354.647C195.618 353.651 196.043 352.797 196.59 352.084C197.146 351.371 197.806 350.824 198.567 350.443C199.339 350.053 200.198 349.857 201.146 349.857C202.142 349.857 203.011 350.033 203.753 350.385C204.505 350.727 205.14 351.229 205.657 351.894C206.185 352.548 206.6 353.339 206.902 354.267C207.205 355.194 207.415 356.244 207.532 357.416V358.764C207.425 359.926 207.215 360.971 206.902 361.898C206.6 362.826 206.185 363.617 205.657 364.271C205.14 364.926 204.505 365.429 203.753 365.78C203.001 366.122 202.122 366.293 201.116 366.293C200.188 366.293 199.339 366.093 198.567 365.692C197.806 365.292 197.146 364.73 196.59 364.008C196.043 363.285 195.618 362.436 195.315 361.459C195.022 360.473 194.876 359.403 194.876 358.251ZM197.601 357.943V358.251C197.601 359.042 197.679 359.784 197.835 360.478C198.001 361.171 198.255 361.781 198.597 362.309C198.938 362.836 199.373 363.251 199.9 363.554C200.428 363.847 201.058 363.993 201.79 363.993C202.688 363.993 203.426 363.803 204.002 363.422C204.588 363.041 205.057 362.538 205.408 361.913C205.76 361.288 206.033 360.609 206.229 359.877V356.347C206.111 355.81 205.94 355.292 205.716 354.794C205.501 354.286 205.218 353.837 204.866 353.446C204.524 353.046 204.1 352.729 203.592 352.494C203.094 352.26 202.503 352.143 201.819 352.143C201.077 352.143 200.438 352.299 199.9 352.611C199.373 352.914 198.938 353.334 198.597 353.871C198.255 354.398 198.001 355.014 197.835 355.717C197.679 356.41 197.601 357.152 197.601 357.943ZM211.766 358.251V357.914C211.766 356.771 211.932 355.712 212.264 354.735C212.596 353.749 213.074 352.895 213.699 352.172C214.324 351.439 215.081 350.873 215.97 350.473C216.858 350.062 217.854 349.857 218.958 349.857C220.071 349.857 221.072 350.062 221.961 350.473C222.859 350.873 223.621 351.439 224.246 352.172C224.881 352.895 225.364 353.749 225.696 354.735C226.028 355.712 226.194 356.771 226.194 357.914V358.251C226.194 359.394 226.028 360.453 225.696 361.43C225.364 362.406 224.881 363.261 224.246 363.993C223.621 364.716 222.864 365.282 221.976 365.692C221.097 366.093 220.101 366.293 218.987 366.293C217.874 366.293 216.873 366.093 215.984 365.692C215.096 365.282 214.334 364.716 213.699 363.993C213.074 363.261 212.596 362.406 212.264 361.43C211.932 360.453 211.766 359.394 211.766 358.251ZM214.476 357.914V358.251C214.476 359.042 214.568 359.789 214.754 360.492C214.939 361.186 215.218 361.801 215.589 362.338C215.97 362.875 216.443 363.3 217.01 363.612C217.576 363.915 218.235 364.066 218.987 364.066C219.729 364.066 220.379 363.915 220.936 363.612C221.502 363.3 221.971 362.875 222.342 362.338C222.713 361.801 222.991 361.186 223.177 360.492C223.372 359.789 223.47 359.042 223.47 358.251V357.914C223.47 357.133 223.372 356.396 223.177 355.702C222.991 354.999 222.708 354.379 222.327 353.842C221.956 353.295 221.487 352.865 220.921 352.553C220.364 352.24 219.71 352.084 218.958 352.084C218.216 352.084 217.562 352.24 216.995 352.553C216.438 352.865 215.97 353.295 215.589 353.842C215.218 354.379 214.939 354.999 214.754 355.702C214.568 356.396 214.476 357.133 214.476 357.914Z" fill="black"/>
<path d="M156.056 255.924V236.5H158.78V259H156.29L156.056 255.924ZM145.392 251.251V250.943C145.392 249.732 145.538 248.634 145.831 247.647C146.134 246.651 146.559 245.797 147.105 245.084C147.662 244.371 148.321 243.824 149.083 243.443C149.854 243.053 150.714 242.857 151.661 242.857C152.657 242.857 153.526 243.033 154.269 243.385C155.021 243.727 155.655 244.229 156.173 244.894C156.7 245.548 157.115 246.339 157.418 247.267C157.721 248.194 157.931 249.244 158.048 250.416V251.764C157.94 252.926 157.73 253.971 157.418 254.898C157.115 255.826 156.7 256.617 156.173 257.271C155.655 257.926 155.021 258.429 154.269 258.78C153.517 259.122 152.638 259.293 151.632 259.293C150.704 259.293 149.854 259.093 149.083 258.692C148.321 258.292 147.662 257.73 147.105 257.008C146.559 256.285 146.134 255.436 145.831 254.459C145.538 253.473 145.392 252.403 145.392 251.251ZM148.116 250.943V251.251C148.116 252.042 148.194 252.784 148.351 253.478C148.517 254.171 148.771 254.781 149.112 255.309C149.454 255.836 149.889 256.251 150.416 256.554C150.943 256.847 151.573 256.993 152.306 256.993C153.204 256.993 153.941 256.803 154.518 256.422C155.104 256.041 155.572 255.538 155.924 254.913C156.275 254.288 156.549 253.609 156.744 252.877V249.347C156.627 248.81 156.456 248.292 156.231 247.794C156.017 247.286 155.733 246.837 155.382 246.446C155.04 246.046 154.615 245.729 154.107 245.494C153.609 245.26 153.019 245.143 152.335 245.143C151.593 245.143 150.953 245.299 150.416 245.611C149.889 245.914 149.454 246.334 149.112 246.871C148.771 247.398 148.517 248.014 148.351 248.717C148.194 249.41 148.116 250.152 148.116 250.943ZM165.943 243.15V259H163.219V243.15H165.943ZM163.014 238.946C163.014 238.507 163.146 238.136 163.409 237.833C163.683 237.53 164.083 237.379 164.61 237.379C165.128 237.379 165.523 237.53 165.797 237.833C166.08 238.136 166.222 238.507 166.222 238.946C166.222 239.366 166.08 239.728 165.797 240.03C165.523 240.323 165.128 240.47 164.61 240.47C164.083 240.47 163.683 240.323 163.409 240.03C163.146 239.728 163.014 239.366 163.014 238.946ZM170.279 236.5H173.004V255.924L172.77 259H170.279V236.5ZM183.712 250.943V251.251C183.712 252.403 183.575 253.473 183.302 254.459C183.028 255.436 182.628 256.285 182.101 257.008C181.573 257.73 180.929 258.292 180.167 258.692C179.405 259.093 178.531 259.293 177.545 259.293C176.539 259.293 175.655 259.122 174.894 258.78C174.142 258.429 173.507 257.926 172.989 257.271C172.472 256.617 172.057 255.826 171.744 254.898C171.441 253.971 171.231 252.926 171.114 251.764V250.416C171.231 249.244 171.441 248.194 171.744 247.267C172.057 246.339 172.472 245.548 172.989 244.894C173.507 244.229 174.142 243.727 174.894 243.385C175.646 243.033 176.52 242.857 177.516 242.857C178.512 242.857 179.396 243.053 180.167 243.443C180.938 243.824 181.583 244.371 182.101 245.084C182.628 245.797 183.028 246.651 183.302 247.647C183.575 248.634 183.712 249.732 183.712 250.943ZM180.987 251.251V250.943C180.987 250.152 180.914 249.41 180.768 248.717C180.621 248.014 180.387 247.398 180.064 246.871C179.742 246.334 179.317 245.914 178.79 245.611C178.263 245.299 177.613 245.143 176.842 245.143C176.158 245.143 175.562 245.26 175.055 245.494C174.557 245.729 174.132 246.046 173.78 246.446C173.429 246.837 173.141 247.286 172.916 247.794C172.701 248.292 172.54 248.81 172.433 249.347V252.877C172.589 253.561 172.843 254.22 173.194 254.854C173.556 255.479 174.034 255.992 174.63 256.393C175.235 256.793 175.982 256.993 176.871 256.993C177.604 256.993 178.229 256.847 178.746 256.554C179.273 256.251 179.698 255.836 180.021 255.309C180.353 254.781 180.597 254.171 180.753 253.478C180.909 252.784 180.987 252.042 180.987 251.251ZM196.837 255.338V243.15H199.562V259H196.969L196.837 255.338ZM197.35 251.998L198.478 251.969C198.478 253.023 198.365 254 198.141 254.898C197.926 255.787 197.574 256.559 197.086 257.213C196.598 257.867 195.958 258.38 195.167 258.751C194.376 259.112 193.414 259.293 192.281 259.293C191.51 259.293 190.802 259.181 190.157 258.956C189.522 258.731 188.976 258.385 188.517 257.916C188.058 257.447 187.701 256.837 187.447 256.085C187.203 255.333 187.081 254.43 187.081 253.375V243.15H189.791V253.404C189.791 254.117 189.869 254.708 190.025 255.177C190.191 255.636 190.411 256.002 190.685 256.275C190.968 256.539 191.28 256.725 191.622 256.832C191.974 256.939 192.335 256.993 192.706 256.993C193.858 256.993 194.771 256.773 195.445 256.334C196.119 255.885 196.603 255.284 196.896 254.532C197.198 253.771 197.35 252.926 197.35 251.998ZM203.766 243.15H206.49V260.89C206.49 261.856 206.334 262.677 206.021 263.351C205.719 264.024 205.26 264.532 204.645 264.874C204.039 265.226 203.272 265.401 202.345 265.401C202.101 265.401 201.817 265.377 201.495 265.328C201.163 265.279 200.885 265.221 200.66 265.152L200.675 262.97C200.86 263.009 201.07 263.038 201.305 263.058C201.539 263.087 201.744 263.102 201.92 263.102C202.32 263.102 202.657 263.028 202.931 262.882C203.204 262.735 203.409 262.501 203.546 262.179C203.692 261.856 203.766 261.427 203.766 260.89V243.15ZM203.487 238.946C203.487 238.507 203.624 238.136 203.897 237.833C204.171 237.53 204.566 237.379 205.084 237.379C205.611 237.379 206.012 237.53 206.285 237.833C206.559 238.136 206.695 238.507 206.695 238.946C206.695 239.366 206.559 239.728 206.285 240.03C206.012 240.323 205.611 240.47 205.084 240.47C204.566 240.47 204.171 240.323 203.897 240.03C203.624 239.728 203.487 239.366 203.487 238.946ZM210.152 251.251V250.914C210.152 249.771 210.318 248.712 210.65 247.735C210.982 246.749 211.461 245.895 212.086 245.172C212.711 244.439 213.468 243.873 214.356 243.473C215.245 243.062 216.241 242.857 217.345 242.857C218.458 242.857 219.459 243.062 220.348 243.473C221.246 243.873 222.008 244.439 222.633 245.172C223.268 245.895 223.751 246.749 224.083 247.735C224.415 248.712 224.581 249.771 224.581 250.914V251.251C224.581 252.394 224.415 253.453 224.083 254.43C223.751 255.406 223.268 256.261 222.633 256.993C222.008 257.716 221.251 258.282 220.362 258.692C219.483 259.093 218.487 259.293 217.374 259.293C216.261 259.293 215.26 259.093 214.371 258.692C213.482 258.282 212.721 257.716 212.086 256.993C211.461 256.261 210.982 255.406 210.65 254.43C210.318 253.453 210.152 252.394 210.152 251.251ZM212.862 250.914V251.251C212.862 252.042 212.955 252.789 213.141 253.492C213.326 254.186 213.604 254.801 213.976 255.338C214.356 255.875 214.83 256.3 215.396 256.612C215.963 256.915 216.622 257.066 217.374 257.066C218.116 257.066 218.766 256.915 219.322 256.612C219.889 256.3 220.357 255.875 220.729 255.338C221.1 254.801 221.378 254.186 221.563 253.492C221.759 252.789 221.856 252.042 221.856 251.251V250.914C221.856 250.133 221.759 249.396 221.563 248.702C221.378 247.999 221.095 247.379 220.714 246.842C220.343 246.295 219.874 245.865 219.308 245.553C218.751 245.24 218.097 245.084 217.345 245.084C216.603 245.084 215.948 245.24 215.382 245.553C214.825 245.865 214.356 246.295 213.976 246.842C213.604 247.379 213.326 247.999 213.141 248.702C212.955 249.396 212.862 250.133 212.862 250.914Z" fill="black"/>
<path d="M156.885 678.554L161.221 665.15H163.989L158.291 681H156.475L156.885 678.554ZM153.267 665.15L157.734 678.627L158.042 681H156.226L150.483 665.15H153.267ZM169.541 665.15V681H166.816V665.15H169.541ZM166.611 660.946C166.611 660.507 166.743 660.136 167.007 659.833C167.28 659.53 167.681 659.379 168.208 659.379C168.726 659.379 169.121 659.53 169.395 659.833C169.678 660.136 169.819 660.507 169.819 660.946C169.819 661.366 169.678 661.728 169.395 662.03C169.121 662.323 168.726 662.47 168.208 662.47C167.681 662.47 167.28 662.323 167.007 662.03C166.743 661.728 166.611 661.366 166.611 660.946ZM183.882 677.924V658.5H186.606V681H184.116L183.882 677.924ZM173.218 673.251V672.943C173.218 671.732 173.364 670.634 173.657 669.647C173.96 668.651 174.385 667.797 174.932 667.084C175.488 666.371 176.147 665.824 176.909 665.443C177.681 665.053 178.54 664.857 179.487 664.857C180.483 664.857 181.353 665.033 182.095 665.385C182.847 665.727 183.481 666.229 183.999 666.894C184.526 667.548 184.941 668.339 185.244 669.267C185.547 670.194 185.757 671.244 185.874 672.416V673.764C185.767 674.926 185.557 675.971 185.244 676.898C184.941 677.826 184.526 678.617 183.999 679.271C183.481 679.926 182.847 680.429 182.095 680.78C181.343 681.122 180.464 681.293 179.458 681.293C178.53 681.293 177.681 681.093 176.909 680.692C176.147 680.292 175.488 679.73 174.932 679.008C174.385 678.285 173.96 677.436 173.657 676.459C173.364 675.473 173.218 674.403 173.218 673.251ZM175.942 672.943V673.251C175.942 674.042 176.021 674.784 176.177 675.478C176.343 676.171 176.597 676.781 176.938 677.309C177.28 677.836 177.715 678.251 178.242 678.554C178.77 678.847 179.399 678.993 180.132 678.993C181.03 678.993 181.768 678.803 182.344 678.422C182.93 678.041 183.398 677.538 183.75 676.913C184.102 676.288 184.375 675.609 184.57 674.877V671.347C184.453 670.81 184.282 670.292 184.058 669.794C183.843 669.286 183.56 668.837 183.208 668.446C182.866 668.046 182.441 667.729 181.934 667.494C181.436 667.26 180.845 667.143 180.161 667.143C179.419 667.143 178.779 667.299 178.242 667.611C177.715 667.914 177.28 668.334 176.938 668.871C176.597 669.398 176.343 670.014 176.177 670.717C176.021 671.41 175.942 672.152 175.942 672.943ZM197.402 681.293C196.299 681.293 195.298 681.107 194.399 680.736C193.511 680.355 192.744 679.823 192.1 679.14C191.465 678.456 190.977 677.646 190.635 676.708C190.293 675.771 190.122 674.745 190.122 673.632V673.017C190.122 671.728 190.312 670.58 190.693 669.574C191.074 668.559 191.592 667.699 192.246 666.996C192.9 666.293 193.643 665.761 194.473 665.399C195.303 665.038 196.162 664.857 197.051 664.857C198.184 664.857 199.16 665.053 199.98 665.443C200.811 665.834 201.489 666.381 202.017 667.084C202.544 667.777 202.935 668.598 203.188 669.545C203.442 670.482 203.569 671.508 203.569 672.621V673.837H191.733V671.625H200.859V671.42C200.82 670.717 200.674 670.033 200.42 669.369C200.176 668.705 199.785 668.158 199.248 667.729C198.711 667.299 197.979 667.084 197.051 667.084C196.436 667.084 195.869 667.216 195.352 667.479C194.834 667.733 194.39 668.114 194.019 668.622C193.647 669.13 193.359 669.75 193.154 670.482C192.949 671.215 192.847 672.06 192.847 673.017V673.632C192.847 674.384 192.949 675.092 193.154 675.756C193.369 676.41 193.677 676.986 194.077 677.484C194.487 677.982 194.98 678.373 195.557 678.656C196.143 678.939 196.807 679.081 197.549 679.081C198.506 679.081 199.316 678.886 199.98 678.495C200.645 678.104 201.226 677.582 201.724 676.928L203.364 678.231C203.022 678.749 202.588 679.242 202.061 679.711C201.533 680.18 200.884 680.561 200.112 680.854C199.351 681.146 198.447 681.293 197.402 681.293ZM206.016 673.251V672.914C206.016 671.771 206.182 670.712 206.514 669.735C206.846 668.749 207.324 667.895 207.949 667.172C208.574 666.439 209.331 665.873 210.22 665.473C211.108 665.062 212.104 664.857 213.208 664.857C214.321 664.857 215.322 665.062 216.211 665.473C217.109 665.873 217.871 666.439 218.496 667.172C219.131 667.895 219.614 668.749 219.946 669.735C220.278 670.712 220.444 671.771 220.444 672.914V673.251C220.444 674.394 220.278 675.453 219.946 676.43C219.614 677.406 219.131 678.261 218.496 678.993C217.871 679.716 217.114 680.282 216.226 680.692C215.347 681.093 214.351 681.293 213.237 681.293C212.124 681.293 211.123 681.093 210.234 680.692C209.346 680.282 208.584 679.716 207.949 678.993C207.324 678.261 206.846 677.406 206.514 676.43C206.182 675.453 206.016 674.394 206.016 673.251ZM208.726 672.914V673.251C208.726 674.042 208.818 674.789 209.004 675.492C209.189 676.186 209.468 676.801 209.839 677.338C210.22 677.875 210.693 678.3 211.26 678.612C211.826 678.915 212.485 679.066 213.237 679.066C213.979 679.066 214.629 678.915 215.186 678.612C215.752 678.3 216.221 677.875 216.592 677.338C216.963 676.801 217.241 676.186 217.427 675.492C217.622 674.789 217.72 674.042 217.72 673.251V672.914C217.72 672.133 217.622 671.396 217.427 670.702C217.241 669.999 216.958 669.379 216.577 668.842C216.206 668.295 215.737 667.865 215.171 667.553C214.614 667.24 213.96 667.084 213.208 667.084C212.466 667.084 211.812 667.24 211.245 667.553C210.688 667.865 210.22 668.295 209.839 668.842C209.468 669.379 209.189 669.999 209.004 670.702C208.818 671.396 208.726 672.133 208.726 672.914Z" fill="black"/>
<path d="M158.334 557.15H160.795V572.663C160.795 574.06 160.512 575.251 159.945 576.237C159.379 577.224 158.588 577.971 157.572 578.479C156.566 578.996 155.404 579.255 154.086 579.255C153.539 579.255 152.895 579.167 152.152 578.991C151.42 578.825 150.697 578.537 149.984 578.127C149.281 577.727 148.69 577.185 148.212 576.501L149.633 574.89C150.297 575.69 150.99 576.247 151.713 576.56C152.445 576.872 153.168 577.028 153.881 577.028C154.74 577.028 155.482 576.867 156.107 576.545C156.732 576.223 157.216 575.744 157.558 575.109C157.909 574.484 158.085 573.713 158.085 572.795V560.637L158.334 557.15ZM147.421 565.251V564.943C147.421 563.732 147.562 562.634 147.846 561.647C148.139 560.651 148.554 559.797 149.091 559.084C149.638 558.371 150.297 557.824 151.068 557.443C151.84 557.053 152.709 556.857 153.676 556.857C154.672 556.857 155.541 557.033 156.283 557.385C157.035 557.727 157.67 558.229 158.188 558.894C158.715 559.548 159.13 560.339 159.433 561.267C159.735 562.194 159.945 563.244 160.062 564.416V565.764C159.955 566.926 159.745 567.971 159.433 568.898C159.13 569.826 158.715 570.617 158.188 571.271C157.67 571.926 157.035 572.429 156.283 572.78C155.531 573.122 154.652 573.293 153.646 573.293C152.699 573.293 151.84 573.093 151.068 572.692C150.307 572.292 149.652 571.73 149.105 571.008C148.559 570.285 148.139 569.436 147.846 568.459C147.562 567.473 147.421 566.403 147.421 565.251ZM150.131 564.943V565.251C150.131 566.042 150.209 566.784 150.365 567.478C150.531 568.171 150.78 568.781 151.112 569.309C151.454 569.836 151.889 570.251 152.416 570.554C152.943 570.847 153.573 570.993 154.306 570.993C155.204 570.993 155.946 570.803 156.532 570.422C157.118 570.041 157.582 569.538 157.924 568.913C158.275 568.288 158.549 567.609 158.744 566.877V563.347C158.637 562.81 158.471 562.292 158.246 561.794C158.031 561.286 157.748 560.837 157.396 560.446C157.055 560.046 156.63 559.729 156.122 559.494C155.614 559.26 155.019 559.143 154.335 559.143C153.593 559.143 152.953 559.299 152.416 559.611C151.889 559.914 151.454 560.334 151.112 560.871C150.78 561.398 150.531 562.014 150.365 562.717C150.209 563.41 150.131 564.152 150.131 564.943ZM171.488 573.293C170.385 573.293 169.384 573.107 168.485 572.736C167.597 572.355 166.83 571.823 166.186 571.14C165.551 570.456 165.062 569.646 164.721 568.708C164.379 567.771 164.208 566.745 164.208 565.632V565.017C164.208 563.728 164.398 562.58 164.779 561.574C165.16 560.559 165.678 559.699 166.332 558.996C166.986 558.293 167.729 557.761 168.559 557.399C169.389 557.038 170.248 556.857 171.137 556.857C172.27 556.857 173.246 557.053 174.066 557.443C174.896 557.834 175.575 558.381 176.103 559.084C176.63 559.777 177.021 560.598 177.274 561.545C177.528 562.482 177.655 563.508 177.655 564.621V565.837H165.819V563.625H174.945V563.42C174.906 562.717 174.76 562.033 174.506 561.369C174.262 560.705 173.871 560.158 173.334 559.729C172.797 559.299 172.064 559.084 171.137 559.084C170.521 559.084 169.955 559.216 169.438 559.479C168.92 559.733 168.476 560.114 168.104 560.622C167.733 561.13 167.445 561.75 167.24 562.482C167.035 563.215 166.933 564.06 166.933 565.017V565.632C166.933 566.384 167.035 567.092 167.24 567.756C167.455 568.41 167.763 568.986 168.163 569.484C168.573 569.982 169.066 570.373 169.643 570.656C170.229 570.939 170.893 571.081 171.635 571.081C172.592 571.081 173.402 570.886 174.066 570.495C174.73 570.104 175.312 569.582 175.81 568.928L177.45 570.231C177.108 570.749 176.674 571.242 176.146 571.711C175.619 572.18 174.97 572.561 174.198 572.854C173.437 573.146 172.533 573.293 171.488 573.293ZM190.048 568.796C190.048 568.405 189.96 568.044 189.784 567.712C189.618 567.37 189.271 567.062 188.744 566.789C188.227 566.506 187.445 566.262 186.4 566.057C185.521 565.871 184.726 565.651 184.013 565.397C183.31 565.144 182.709 564.836 182.211 564.475C181.723 564.113 181.347 563.688 181.083 563.2C180.819 562.712 180.688 562.141 180.688 561.486C180.688 560.861 180.824 560.271 181.098 559.714C181.381 559.157 181.776 558.664 182.284 558.234C182.802 557.805 183.422 557.468 184.145 557.224C184.867 556.979 185.673 556.857 186.562 556.857C187.831 556.857 188.915 557.082 189.813 557.531C190.712 557.98 191.4 558.581 191.879 559.333C192.357 560.075 192.597 560.9 192.597 561.809H189.887C189.887 561.369 189.755 560.944 189.491 560.534C189.237 560.114 188.861 559.768 188.363 559.494C187.875 559.221 187.274 559.084 186.562 559.084C185.81 559.084 185.199 559.201 184.73 559.436C184.271 559.66 183.935 559.948 183.72 560.3C183.515 560.651 183.412 561.022 183.412 561.413C183.412 561.706 183.461 561.97 183.559 562.204C183.666 562.429 183.852 562.639 184.115 562.834C184.379 563.02 184.75 563.195 185.229 563.361C185.707 563.527 186.317 563.693 187.06 563.859C188.358 564.152 189.428 564.504 190.268 564.914C191.107 565.324 191.732 565.827 192.143 566.423C192.553 567.019 192.758 567.741 192.758 568.591C192.758 569.284 192.611 569.919 192.318 570.495C192.035 571.071 191.62 571.569 191.073 571.989C190.536 572.399 189.892 572.722 189.14 572.956C188.397 573.181 187.562 573.293 186.635 573.293C185.238 573.293 184.057 573.044 183.09 572.546C182.123 572.048 181.391 571.403 180.893 570.612C180.395 569.821 180.146 568.986 180.146 568.107H182.87C182.909 568.85 183.124 569.44 183.515 569.88C183.905 570.31 184.384 570.617 184.95 570.803C185.517 570.979 186.078 571.066 186.635 571.066C187.377 571.066 187.997 570.969 188.495 570.773C189.003 570.578 189.389 570.31 189.652 569.968C189.916 569.626 190.048 569.235 190.048 568.796ZM202.953 557.15V559.23H194.384V557.15H202.953ZM197.284 553.298H199.994V569.074C199.994 569.611 200.077 570.017 200.243 570.29C200.409 570.563 200.624 570.744 200.888 570.832C201.151 570.92 201.435 570.964 201.737 570.964C201.962 570.964 202.196 570.944 202.44 570.905C202.694 570.856 202.885 570.817 203.012 570.788L203.026 573C202.812 573.068 202.528 573.132 202.177 573.19C201.835 573.259 201.42 573.293 200.932 573.293C200.268 573.293 199.657 573.161 199.101 572.897C198.544 572.634 198.1 572.194 197.768 571.579C197.445 570.954 197.284 570.114 197.284 569.06V553.298ZM205.121 565.251V564.914C205.121 563.771 205.287 562.712 205.619 561.735C205.951 560.749 206.43 559.895 207.055 559.172C207.68 558.439 208.437 557.873 209.325 557.473C210.214 557.062 211.21 556.857 212.313 556.857C213.427 556.857 214.428 557.062 215.316 557.473C216.215 557.873 216.977 558.439 217.602 559.172C218.236 559.895 218.72 560.749 219.052 561.735C219.384 562.712 219.55 563.771 219.55 564.914V565.251C219.55 566.394 219.384 567.453 219.052 568.43C218.72 569.406 218.236 570.261 217.602 570.993C216.977 571.716 216.22 572.282 215.331 572.692C214.452 573.093 213.456 573.293 212.343 573.293C211.229 573.293 210.229 573.093 209.34 572.692C208.451 572.282 207.689 571.716 207.055 570.993C206.43 570.261 205.951 569.406 205.619 568.43C205.287 567.453 205.121 566.394 205.121 565.251ZM207.831 564.914V565.251C207.831 566.042 207.924 566.789 208.109 567.492C208.295 568.186 208.573 568.801 208.944 569.338C209.325 569.875 209.799 570.3 210.365 570.612C210.932 570.915 211.591 571.066 212.343 571.066C213.085 571.066 213.734 570.915 214.291 570.612C214.857 570.3 215.326 569.875 215.697 569.338C216.068 568.801 216.347 568.186 216.532 567.492C216.728 566.789 216.825 566.042 216.825 565.251V564.914C216.825 564.133 216.728 563.396 216.532 562.702C216.347 561.999 216.063 561.379 215.683 560.842C215.312 560.295 214.843 559.865 214.276 559.553C213.72 559.24 213.065 559.084 212.313 559.084C211.571 559.084 210.917 559.24 210.351 559.553C209.794 559.865 209.325 560.295 208.944 560.842C208.573 561.379 208.295 561.999 208.109 562.702C207.924 563.396 207.831 564.133 207.831 564.914Z" fill="black"/>
<path d="M128.411 471.29V463.131C128.411 462.506 128.284 461.964 128.03 461.505C127.786 461.036 127.415 460.675 126.917 460.421C126.419 460.167 125.804 460.04 125.071 460.04C124.388 460.04 123.787 460.157 123.27 460.392C122.762 460.626 122.361 460.934 122.068 461.314C121.785 461.695 121.644 462.105 121.644 462.545H118.934C118.934 461.979 119.08 461.417 119.373 460.86C119.666 460.304 120.086 459.801 120.633 459.352C121.189 458.893 121.854 458.531 122.625 458.268C123.406 457.994 124.275 457.857 125.232 457.857C126.385 457.857 127.4 458.053 128.279 458.443C129.168 458.834 129.861 459.425 130.359 460.216C130.867 460.997 131.121 461.979 131.121 463.16V470.543C131.121 471.07 131.165 471.632 131.253 472.228C131.351 472.823 131.492 473.336 131.678 473.766V474H128.851C128.714 473.688 128.606 473.272 128.528 472.755C128.45 472.228 128.411 471.739 128.411 471.29ZM128.88 464.391L128.909 466.295H126.17C125.398 466.295 124.71 466.358 124.104 466.485C123.499 466.603 122.991 466.783 122.581 467.027C122.171 467.271 121.858 467.579 121.644 467.95C121.429 468.312 121.321 468.736 121.321 469.225C121.321 469.723 121.434 470.177 121.658 470.587C121.883 470.997 122.22 471.324 122.669 471.568C123.128 471.803 123.689 471.92 124.354 471.92C125.184 471.92 125.916 471.744 126.551 471.393C127.186 471.041 127.688 470.611 128.06 470.104C128.44 469.596 128.646 469.103 128.675 468.624L129.832 469.928C129.764 470.338 129.578 470.792 129.275 471.29C128.973 471.788 128.567 472.267 128.06 472.726C127.562 473.175 126.966 473.551 126.272 473.854C125.589 474.146 124.817 474.293 123.958 474.293C122.884 474.293 121.941 474.083 121.131 473.663C120.33 473.243 119.705 472.682 119.256 471.979C118.816 471.266 118.597 470.47 118.597 469.591C118.597 468.741 118.763 467.994 119.095 467.35C119.427 466.695 119.905 466.153 120.53 465.724C121.155 465.284 121.907 464.952 122.786 464.728C123.665 464.503 124.646 464.391 125.73 464.391H128.88ZM138.094 461.534V474H135.384V458.15H137.947L138.094 461.534ZM137.449 465.475L136.321 465.431C136.331 464.347 136.492 463.346 136.805 462.428C137.117 461.5 137.557 460.694 138.123 460.011C138.689 459.327 139.363 458.8 140.145 458.429C140.936 458.048 141.81 457.857 142.767 457.857C143.548 457.857 144.251 457.965 144.876 458.18C145.501 458.385 146.033 458.717 146.473 459.176C146.922 459.635 147.264 460.23 147.498 460.963C147.732 461.686 147.85 462.569 147.85 463.614V474H145.125V463.585C145.125 462.755 145.003 462.091 144.759 461.593C144.515 461.085 144.158 460.719 143.689 460.494C143.221 460.26 142.645 460.143 141.961 460.143C141.287 460.143 140.672 460.284 140.115 460.567C139.568 460.851 139.095 461.241 138.694 461.739C138.304 462.237 137.996 462.809 137.771 463.453C137.557 464.088 137.449 464.762 137.449 465.475ZM154.91 458.15V474H152.186V458.15H154.91ZM151.98 453.946C151.98 453.507 152.112 453.136 152.376 452.833C152.649 452.53 153.05 452.379 153.577 452.379C154.095 452.379 154.49 452.53 154.764 452.833C155.047 453.136 155.188 453.507 155.188 453.946C155.188 454.366 155.047 454.728 154.764 455.03C154.49 455.323 154.095 455.47 153.577 455.47C153.05 455.47 152.649 455.323 152.376 455.03C152.112 454.728 151.98 454.366 151.98 453.946ZM161.956 461.3V474H159.231V458.15H161.81L161.956 461.3ZM161.399 465.475L160.14 465.431C160.149 464.347 160.291 463.346 160.564 462.428C160.838 461.5 161.243 460.694 161.78 460.011C162.317 459.327 162.986 458.8 163.787 458.429C164.588 458.048 165.516 457.857 166.57 457.857C167.312 457.857 167.996 457.965 168.621 458.18C169.246 458.385 169.788 458.712 170.247 459.161C170.706 459.61 171.062 460.187 171.316 460.89C171.57 461.593 171.697 462.442 171.697 463.438V474H168.987V463.57C168.987 462.74 168.846 462.076 168.562 461.578C168.289 461.08 167.898 460.719 167.391 460.494C166.883 460.26 166.287 460.143 165.604 460.143C164.803 460.143 164.134 460.284 163.597 460.567C163.06 460.851 162.63 461.241 162.308 461.739C161.985 462.237 161.751 462.809 161.604 463.453C161.468 464.088 161.399 464.762 161.399 465.475ZM171.668 463.98L169.852 464.537C169.861 463.668 170.003 462.833 170.276 462.032C170.56 461.231 170.965 460.519 171.492 459.894C172.029 459.269 172.688 458.775 173.47 458.414C174.251 458.043 175.145 457.857 176.15 457.857C177 457.857 177.752 457.97 178.406 458.194C179.07 458.419 179.627 458.766 180.076 459.234C180.535 459.693 180.882 460.284 181.116 461.007C181.351 461.729 181.468 462.589 181.468 463.585V474H178.743V463.556C178.743 462.667 178.602 461.979 178.318 461.49C178.045 460.992 177.654 460.646 177.146 460.45C176.648 460.245 176.053 460.143 175.359 460.143C174.764 460.143 174.236 460.245 173.777 460.45C173.318 460.655 172.933 460.938 172.62 461.3C172.308 461.651 172.068 462.057 171.902 462.516C171.746 462.975 171.668 463.463 171.668 463.98ZM194.915 471.29V463.131C194.915 462.506 194.788 461.964 194.534 461.505C194.29 461.036 193.919 460.675 193.421 460.421C192.923 460.167 192.308 460.04 191.575 460.04C190.892 460.04 190.291 460.157 189.773 460.392C189.266 460.626 188.865 460.934 188.572 461.314C188.289 461.695 188.147 462.105 188.147 462.545H185.438C185.438 461.979 185.584 461.417 185.877 460.86C186.17 460.304 186.59 459.801 187.137 459.352C187.693 458.893 188.357 458.531 189.129 458.268C189.91 457.994 190.779 457.857 191.736 457.857C192.889 457.857 193.904 458.053 194.783 458.443C195.672 458.834 196.365 459.425 196.863 460.216C197.371 460.997 197.625 461.979 197.625 463.16V470.543C197.625 471.07 197.669 471.632 197.757 472.228C197.854 472.823 197.996 473.336 198.182 473.766V474H195.354C195.218 473.688 195.11 473.272 195.032 472.755C194.954 472.228 194.915 471.739 194.915 471.29ZM195.384 464.391L195.413 466.295H192.674C191.902 466.295 191.214 466.358 190.608 466.485C190.003 466.603 189.495 466.783 189.085 467.027C188.675 467.271 188.362 467.579 188.147 467.95C187.933 468.312 187.825 468.736 187.825 469.225C187.825 469.723 187.938 470.177 188.162 470.587C188.387 470.997 188.724 471.324 189.173 471.568C189.632 471.803 190.193 471.92 190.857 471.92C191.688 471.92 192.42 471.744 193.055 471.393C193.689 471.041 194.192 470.611 194.563 470.104C194.944 469.596 195.149 469.103 195.179 468.624L196.336 469.928C196.268 470.338 196.082 470.792 195.779 471.29C195.477 471.788 195.071 472.267 194.563 472.726C194.065 473.175 193.47 473.551 192.776 473.854C192.093 474.146 191.321 474.293 190.462 474.293C189.388 474.293 188.445 474.083 187.635 473.663C186.834 473.243 186.209 472.682 185.76 471.979C185.32 471.266 185.101 470.47 185.101 469.591C185.101 468.741 185.267 467.994 185.599 467.35C185.931 466.695 186.409 466.153 187.034 465.724C187.659 465.284 188.411 464.952 189.29 464.728C190.169 464.503 191.15 464.391 192.234 464.391H195.384ZM208.23 472.066C208.875 472.066 209.471 471.935 210.018 471.671C210.564 471.407 211.014 471.046 211.365 470.587C211.717 470.118 211.917 469.586 211.966 468.99H214.544C214.495 469.928 214.178 470.802 213.592 471.612C213.016 472.413 212.259 473.062 211.321 473.561C210.384 474.049 209.354 474.293 208.23 474.293C207.039 474.293 205.999 474.083 205.11 473.663C204.231 473.243 203.499 472.667 202.913 471.935C202.337 471.202 201.902 470.362 201.609 469.415C201.326 468.458 201.185 467.447 201.185 466.383V465.768C201.185 464.703 201.326 463.697 201.609 462.75C201.902 461.793 202.337 460.948 202.913 460.216C203.499 459.483 204.231 458.907 205.11 458.487C205.999 458.067 207.039 457.857 208.23 457.857C209.471 457.857 210.555 458.111 211.482 458.619C212.41 459.117 213.138 459.801 213.665 460.67C214.202 461.529 214.495 462.506 214.544 463.6H211.966C211.917 462.945 211.731 462.354 211.409 461.827C211.097 461.3 210.667 460.88 210.12 460.567C209.583 460.245 208.953 460.084 208.23 460.084C207.4 460.084 206.702 460.25 206.136 460.582C205.579 460.904 205.135 461.344 204.803 461.9C204.48 462.447 204.246 463.058 204.1 463.731C203.963 464.396 203.895 465.074 203.895 465.768V466.383C203.895 467.076 203.963 467.76 204.1 468.434C204.236 469.107 204.466 469.718 204.788 470.265C205.12 470.812 205.564 471.251 206.121 471.583C206.688 471.905 207.391 472.066 208.23 472.066ZM220.535 458.15V474H217.811V458.15H220.535ZM217.605 453.946C217.605 453.507 217.737 453.136 218.001 452.833C218.274 452.53 218.675 452.379 219.202 452.379C219.72 452.379 220.115 452.53 220.389 452.833C220.672 453.136 220.813 453.507 220.813 453.946C220.813 454.366 220.672 454.728 220.389 455.03C220.115 455.323 219.72 455.47 219.202 455.47C218.675 455.47 218.274 455.323 218.001 455.03C217.737 454.728 217.605 454.366 217.605 453.946ZM224.168 466.251V465.914C224.168 464.771 224.334 463.712 224.666 462.735C224.998 461.749 225.477 460.895 226.102 460.172C226.727 459.439 227.483 458.873 228.372 458.473C229.261 458.062 230.257 457.857 231.36 457.857C232.474 457.857 233.475 458.062 234.363 458.473C235.262 458.873 236.023 459.439 236.648 460.172C237.283 460.895 237.767 461.749 238.099 462.735C238.431 463.712 238.597 464.771 238.597 465.914V466.251C238.597 467.394 238.431 468.453 238.099 469.43C237.767 470.406 237.283 471.261 236.648 471.993C236.023 472.716 235.267 473.282 234.378 473.692C233.499 474.093 232.503 474.293 231.39 474.293C230.276 474.293 229.275 474.093 228.387 473.692C227.498 473.282 226.736 472.716 226.102 471.993C225.477 471.261 224.998 470.406 224.666 469.43C224.334 468.453 224.168 467.394 224.168 466.251ZM226.878 465.914V466.251C226.878 467.042 226.971 467.789 227.156 468.492C227.342 469.186 227.62 469.801 227.991 470.338C228.372 470.875 228.846 471.3 229.412 471.612C229.979 471.915 230.638 472.066 231.39 472.066C232.132 472.066 232.781 471.915 233.338 471.612C233.904 471.3 234.373 470.875 234.744 470.338C235.115 469.801 235.394 469.186 235.579 468.492C235.774 467.789 235.872 467.042 235.872 466.251V465.914C235.872 465.133 235.774 464.396 235.579 463.702C235.394 462.999 235.11 462.379 234.729 461.842C234.358 461.295 233.89 460.865 233.323 460.553C232.767 460.24 232.112 460.084 231.36 460.084C230.618 460.084 229.964 460.24 229.397 460.553C228.841 460.865 228.372 461.295 227.991 461.842C227.62 462.379 227.342 462.999 227.156 463.702C226.971 464.396 226.878 465.133 226.878 465.914ZM229.749 455.807L232.591 451.5H235.857L231.932 455.807H229.749ZM244.705 461.534V474H241.995V458.15H244.559L244.705 461.534ZM244.061 465.475L242.933 465.431C242.942 464.347 243.104 463.346 243.416 462.428C243.729 461.5 244.168 460.694 244.734 460.011C245.301 459.327 245.975 458.8 246.756 458.429C247.547 458.048 248.421 457.857 249.378 457.857C250.159 457.857 250.862 457.965 251.487 458.18C252.112 458.385 252.645 458.717 253.084 459.176C253.533 459.635 253.875 460.23 254.109 460.963C254.344 461.686 254.461 462.569 254.461 463.614V474H251.736V463.585C251.736 462.755 251.614 462.091 251.37 461.593C251.126 461.085 250.77 460.719 250.301 460.494C249.832 460.26 249.256 460.143 248.572 460.143C247.898 460.143 247.283 460.284 246.727 460.567C246.18 460.851 245.706 461.241 245.306 461.739C244.915 462.237 244.607 462.809 244.383 463.453C244.168 464.088 244.061 464.762 244.061 465.475Z" fill="black"/>
<path d="M140 246.5C140.828 246.5 141.5 245.828 141.5 245C141.5 244.172 140.828 243.5 140 243.5V246.5ZM146.061 139.561C146.646 138.975 146.646 138.025 146.061 137.439L136.515 127.893C135.929 127.308 134.979 127.308 134.393 127.893C133.808 128.479 133.808 129.429 134.393 130.015L142.879 138.5L134.393 146.985C133.808 147.571 133.808 148.521 134.393 149.107C134.979 149.692 135.929 149.692 136.515 149.107L146.061 139.561ZM140 243.5H109V246.5H140V243.5ZM86.5 221V162.5H83.5V221H86.5ZM109 140H145V137H109V140ZM86.5 162.5C86.5 150.074 96.5736 140 109 140V137C94.9167 137 83.5 148.417 83.5 162.5H86.5ZM109 243.5C96.5736 243.5 86.5 233.426 86.5 221H83.5C83.5 235.083 94.9167 246.5 109 246.5V243.5Z" fill="#535C7B"/>
<path d="M133 354C133.828 354 134.5 353.328 134.5 352.5C134.5 351.672 133.828 351 133 351V354ZM146.061 139.561C146.646 138.975 146.646 138.025 146.061 137.439L136.515 127.893C135.929 127.308 134.979 127.308 134.393 127.893C133.808 128.479 133.808 129.429 134.393 130.015L142.879 138.5L134.393 146.985C133.808 147.571 133.808 148.521 134.393 149.107C134.979 149.692 135.929 149.692 136.515 149.107L146.061 139.561ZM133 351H109V354H133V351ZM86.5 328.5V162.5H83.5V328.5H86.5ZM109 140H145V137H109V140ZM86.5 162.5C86.5 150.074 96.5736 140 109 140V137C94.9167 137 83.5 148.417 83.5 162.5H86.5ZM109 351C96.5736 351 86.5 340.926 86.5 328.5H83.5C83.5 342.583 94.9167 354 109 354V351Z" fill="#535C7B"/>
<path d="M146 668C146.828 668 147.5 667.328 147.5 666.5C147.5 665.672 146.828 665 146 665V668ZM146.061 139.561C146.646 138.975 146.646 138.025 146.061 137.439L136.515 127.893C135.929 127.308 134.979 127.308 134.393 127.893C133.808 128.479 133.808 129.429 134.393 130.015L142.879 138.5L134.393 146.985C133.808 147.571 133.808 148.521 134.393 149.107C134.979 149.692 135.929 149.692 136.515 149.107L146.061 139.561ZM146 665H109V668H146V665ZM86.5 642.5V162.5H83.5V642.5H86.5ZM109 140H145V137H109V140ZM86.5 162.5C86.5 150.074 96.5736 140 109 140V137C94.9167 137 83.5 148.417 83.5 162.5H86.5ZM109 665C96.5736 665 86.5 654.926 86.5 642.5H83.5C83.5 656.583 94.9167 668 109 668V665Z" fill="#535C7B"/>
<path d="M142 561C142.828 561 143.5 560.328 143.5 559.5C143.5 558.672 142.828 558 142 558V561ZM146.061 139.561C146.646 138.975 146.646 138.025 146.061 137.439L136.515 127.893C135.929 127.308 134.979 127.308 134.393 127.893C133.808 128.479 133.808 129.429 134.393 130.015L142.879 138.5L134.393 146.985C133.808 147.571 133.808 148.521 134.393 149.107C134.979 149.692 135.929 149.692 136.515 149.107L146.061 139.561ZM142 558H109V561H142V558ZM86.5 535.5V162.5H83.5V535.5H86.5ZM109 140H145V137H109V140ZM86.5 162.5C86.5 150.074 96.5736 140 109 140V137C94.9167 137 83.5 148.417 83.5 162.5H86.5ZM109 558C96.5736 558 86.5 547.926 86.5 535.5H83.5C83.5 549.583 94.9167 561 109 561V558Z" fill="#535C7B"/>
<path d="M113 461C113.828 461 114.5 460.328 114.5 459.5C114.5 458.672 113.828 458 113 458V461ZM146.061 139.561C146.646 138.975 146.646 138.025 146.061 137.439L136.515 127.893C135.929 127.308 134.979 127.308 134.393 127.893C133.808 128.479 133.808 129.429 134.393 130.015L142.879 138.5L134.393 146.985C133.808 147.571 133.808 148.521 134.393 149.107C134.979 149.692 135.929 149.692 136.515 149.107L146.061 139.561ZM113 458H109V461H113V458ZM86.5 435.5V162.5H83.5V435.5H86.5ZM109 140H145V137H109V140ZM86.5 162.5C86.5 150.074 96.5736 140 109 140V137C94.9167 137 83.5 148.417 83.5 162.5H86.5ZM109 458C96.5736 458 86.5 447.926 86.5 435.5H83.5C83.5 449.583 94.9167 461 109 461V458Z" fill="#535C7B"/>
<path d="M185 156C185 155.172 184.328 154.5 183.5 154.5C182.672 154.5 182 155.172 182 156H185ZM184.061 369.939C183.475 369.354 182.525 369.354 181.939 369.939L172.393 379.485C171.808 380.071 171.808 381.021 172.393 381.607C172.979 382.192 173.929 382.192 174.515 381.607L183 373.121L191.485 381.607C192.071 382.192 193.021 382.192 193.607 381.607C194.192 381.021 194.192 380.071 193.607 379.485L184.061 369.939ZM182 156V159H185V156H182ZM207.5 184.5H283V181.5H207.5V184.5ZM305.5 207V375H308.5V207H305.5ZM283 397.5H207V400.5H283V397.5ZM184.5 375V371H181.5V375H184.5ZM207 397.5C194.574 397.5 184.5 387.426 184.5 375H181.5C181.5 389.083 192.917 400.5 207 400.5V397.5ZM305.5 375C305.5 387.426 295.426 397.5 283 397.5V400.5C297.083 400.5 308.5 389.083 308.5 375H305.5ZM283 184.5C295.426 184.5 305.5 194.574 305.5 207H308.5C308.5 192.917 297.083 181.5 283 181.5V184.5ZM182 159C182 173.083 193.417 184.5 207.5 184.5V181.5C195.074 181.5 185 171.426 185 159H182Z" fill="#4A5786"/>
<path d="M185 156C185 155.172 184.328 154.5 183.5 154.5C182.672 154.5 182 155.172 182 156H185ZM187.561 261.939C186.975 261.354 186.025 261.354 185.439 261.939L175.893 271.485C175.308 272.071 175.308 273.021 175.893 273.607C176.479 274.192 177.429 274.192 178.015 273.607L186.5 265.121L194.985 273.607C195.571 274.192 196.521 274.192 197.107 273.607C197.692 273.021 197.692 272.071 197.107 271.485L187.561 261.939ZM182 156V159H185V156H182ZM207.5 184.5H263V181.5H207.5V184.5ZM285.5 207V274H288.5V207H285.5ZM263 296.5H210.5V299.5H263V296.5ZM188 274V263H185V274H188ZM210.5 296.5C198.074 296.5 188 286.426 188 274H185C185 288.083 196.417 299.5 210.5 299.5V296.5ZM285.5 274C285.5 286.426 275.426 296.5 263 296.5V299.5C277.083 299.5 288.5 288.083 288.5 274H285.5ZM263 184.5C275.426 184.5 285.5 194.574 285.5 207H288.5C288.5 192.917 277.083 181.5 263 181.5V184.5ZM182 159C182 173.083 193.417 184.5 207.5 184.5V181.5C195.074 181.5 185 171.426 185 159H182Z" fill="#4A5786"/>
<path d="M185 156C185 155.172 184.328 154.5 183.5 154.5C182.672 154.5 182 155.172 182 156H185ZM188.561 475.939C187.975 475.354 187.025 475.354 186.439 475.939L176.893 485.485C176.308 486.071 176.308 487.021 176.893 487.607C177.479 488.192 178.429 488.192 179.015 487.607L187.5 479.121L195.985 487.607C196.571 488.192 197.521 488.192 198.107 487.607C198.692 487.021 198.692 486.071 198.107 485.485L188.561 475.939ZM182 156V159H185V156H182ZM207.5 184.5H298V181.5H207.5V184.5ZM320.5 207V481H323.5V207H320.5ZM298 503.5H211.5V506.5H298V503.5ZM189 481V477H186V481H189ZM211.5 503.5C199.074 503.5 189 493.426 189 481H186C186 495.083 197.417 506.5 211.5 506.5V503.5ZM320.5 481C320.5 493.426 310.426 503.5 298 503.5V506.5C312.083 506.5 323.5 495.083 323.5 481H320.5ZM298 184.5C310.426 184.5 320.5 194.574 320.5 207H323.5C323.5 192.917 312.083 181.5 298 181.5V184.5ZM182 159C182 173.083 193.417 184.5 207.5 184.5V181.5C195.074 181.5 185 171.426 185 159H182Z" fill="#4A5786"/>
<path d="M185 156C185 155.172 184.328 154.5 183.5 154.5C182.672 154.5 182 155.172 182 156H185ZM185.061 576.939C184.475 576.354 183.525 576.354 182.939 576.939L173.393 586.485C172.808 587.071 172.808 588.021 173.393 588.607C173.979 589.192 174.929 589.192 175.515 588.607L184 580.121L192.485 588.607C193.071 589.192 194.021 589.192 194.607 588.607C195.192 588.021 195.192 587.071 194.607 586.485L185.061 576.939ZM182 156V159H185V156H182ZM207.5 184.5H318V181.5H207.5V184.5ZM340.5 207V579H343.5V207H340.5ZM318 601.5H208V604.5H318V601.5ZM185.5 579V578H182.5V579H185.5ZM208 601.5C195.574 601.5 185.5 591.426 185.5 579H182.5C182.5 593.083 193.917 604.5 208 604.5V601.5ZM340.5 579C340.5 591.426 330.426 601.5 318 601.5V604.5C332.083 604.5 343.5 593.083 343.5 579H340.5ZM318 184.5C330.426 184.5 340.5 194.574 340.5 207H343.5C343.5 192.917 332.083 181.5 318 181.5V184.5ZM182 159C182 173.083 193.417 184.5 207.5 184.5V181.5C195.074 181.5 185 171.426 185 159H182Z" fill="#4A5786"/>
<path d="M185 156C185 155.172 184.328 154.5 183.5 154.5C182.672 154.5 182 155.172 182 156H185ZM188.061 682.939C187.475 682.354 186.525 682.354 185.939 682.939L176.393 692.485C175.808 693.071 175.808 694.021 176.393 694.607C176.979 695.192 177.929 695.192 178.515 694.607L187 686.121L195.485 694.607C196.071 695.192 197.021 695.192 197.607 694.607C198.192 694.021 198.192 693.071 197.607 692.485L188.061 682.939ZM182 156V159H185V156H182ZM207.5 184.5H335V181.5H207.5V184.5ZM357.5 207V688H360.5V207H357.5ZM335 710.5H211V713.5H335V710.5ZM188.5 688V684H185.5V688H188.5ZM211 710.5C198.574 710.5 188.5 700.426 188.5 688H185.5C185.5 702.083 196.917 713.5 211 713.5V710.5ZM357.5 688C357.5 700.426 347.426 710.5 335 710.5V713.5C349.083 713.5 360.5 702.083 360.5 688H357.5ZM335 184.5C347.426 184.5 357.5 194.574 357.5 207H360.5C360.5 192.917 349.083 181.5 335 181.5V184.5ZM182 159C182 173.083 193.417 184.5 207.5 184.5V181.5C195.074 181.5 185 171.426 185 159H182Z" fill="#4A5786"/>
</svg>
